<svg xmlns="http://www.w3.org/2000/svg" width="300" height="150" viewBox="0 0 375 150"><svg width="75" height="75" viewBox="-75 -75 675 675"><path style="fill:#38353b" d="M0 0h675v675H0z"/><g class="swatches"><g class="horizontal"><path style="fill:#38353b" d="M75 0h75v75H75z"/><path style="fill:#842c2a" d="M150 0h75v75h-75z"/><path style="fill:#1e4361" d="M225 0h75v75h-75z"/><path style="fill:#edd9a6" d="M300 0h75v75h-75z"/><path style="fill:#e2dddb" d="M375 0h75v75h-75z"/><path style="fill:#aebac3" d="M450 0h75v75h-75z"/><path style="fill:#8f9fab" d="M525 0h75v75h-75z"/><path style="fill:#c8d6e6" d="M600 0h75v75h-75z"/></g><g class="vertical"><path style="fill:#38353b" d="M0 75h75v75H0z"/><path style="fill:#842c2a" d="M0 150h75v75H0z"/><path style="fill:#1e4361" d="M0 225h75v75H0z"/><path style="fill:#edd9a6" d="M0 300h75v75H0z"/><path style="fill:#e2dddb" d="M0 375h75v75H0z"/><path style="fill:#aebac3" d="M0 450h75v75H0z"/><path style="fill:#8f9fab" d="M0 525h75v75H0z"/><path style="fill:#c8d6e6" d="M0 600h75v75H0z"/></g></g></svg><svg width="75" height="75" x="75" viewBox="-75 -75 675 675"><path style="fill:#842c2a" d="M0 0h675v675H0z"/><g class="swatches"><g class="horizontal"><path style="fill:#842c2a" d="M75 0h75v75H75z"/><path style="fill:#1e4361" d="M150 0h75v75h-75z"/><path style="fill:#edd9a6" d="M225 0h75v75h-75z"/><path style="fill:#e2dddb" d="M300 0h75v75h-75z"/><path style="fill:#aebac3" d="M375 0h75v75h-75z"/><path style="fill:#8f9fab" d="M450 0h75v75h-75z"/><path style="fill:#c8d6e6" d="M525 0h75v75h-75z"/><path style="fill:#38353b" d="M600 0h75v75h-75z"/></g><g class="vertical"><path style="fill:#842c2a" d="M0 75h75v75H0z"/><path style="fill:#1e4361" d="M0 150h75v75H0z"/><path style="fill:#edd9a6" d="M0 225h75v75H0z"/><path style="fill:#e2dddb" d="M0 300h75v75H0z"/><path style="fill:#aebac3" d="M0 375h75v75H0z"/><path style="fill:#8f9fab" d="M0 450h75v75H0z"/><path style="fill:#c8d6e6" d="M0 525h75v75H0z"/><path style="fill:#38353b" d="M0 600h75v75H0z"/></g></g></svg><svg width="75" height="75" x="150" viewBox="-75 -75 675 675"><path style="fill:#1e4361" d="M0 0h675v675H0z"/><g class="swatches"><g class="horizontal"><path style="fill:#1e4361" d="M75 0h75v75H75z"/><path style="fill:#edd9a6" d="M150 0h75v75h-75z"/><path style="fill:#e2dddb" d="M225 0h75v75h-75z"/><path style="fill:#aebac3" d="M300 0h75v75h-75z"/><path style="fill:#8f9fab" d="M375 0h75v75h-75z"/><path style="fill:#c8d6e6" d="M450 0h75v75h-75z"/><path style="fill:#38353b" d="M525 0h75v75h-75z"/><path style="fill:#842c2a" d="M600 0h75v75h-75z"/></g><g class="vertical"><path style="fill:#1e4361" d="M0 75h75v75H0z"/><path style="fill:#edd9a6" d="M0 150h75v75H0z"/><path style="fill:#e2dddb" d="M0 225h75v75H0z"/><path style="fill:#aebac3" d="M0 300h75v75H0z"/><path style="fill:#8f9fab" d="M0 375h75v75H0z"/><path style="fill:#c8d6e6" d="M0 450h75v75H0z"/><path style="fill:#38353b" d="M0 525h75v75H0z"/><path style="fill:#842c2a" d="M0 600h75v75H0z"/></g></g></svg><svg width="75" height="75" x="225" viewBox="-75 -75 675 675"><path style="fill:#edd9a6" d="M0 0h675v675H0z"/><g class="swatches"><g class="horizontal"><path style="fill:#edd9a6" d="M75 0h75v75H75z"/><path style="fill:#e2dddb" d="M150 0h75v75h-75z"/><path style="fill:#aebac3" d="M225 0h75v75h-75z"/><path style="fill:#8f9fab" d="M300 0h75v75h-75z"/><path style="fill:#c8d6e6" d="M375 0h75v75h-75z"/><path style="fill:#38353b" d="M450 0h75v75h-75z"/><path style="fill:#842c2a" d="M525 0h75v75h-75z"/><path style="fill:#1e4361" d="M600 0h75v75h-75z"/></g><g class="vertical"><path style="fill:#edd9a6" d="M0 75h75v75H0z"/><path style="fill:#e2dddb" d="M0 150h75v75H0z"/><path style="fill:#aebac3" d="M0 225h75v75H0z"/><path style="fill:#8f9fab" d="M0 300h75v75H0z"/><path style="fill:#c8d6e6" d="M0 375h75v75H0z"/><path style="fill:#38353b" d="M0 450h75v75H0z"/><path style="fill:#842c2a" d="M0 525h75v75H0z"/><path style="fill:#1e4361" d="M0 600h75v75H0z"/></g></g></svg><svg width="75" height="75" y="75" viewBox="-75 -75 675 675"><path style="fill:#e2dddb" d="M0 0h675v675H0z"/><g class="swatches"><g class="horizontal"><path style="fill:#e2dddb" d="M75 0h75v75H75z"/><path style="fill:#aebac3" d="M150 0h75v75h-75z"/><path style="fill:#8f9fab" d="M225 0h75v75h-75z"/><path style="fill:#c8d6e6" d="M300 0h75v75h-75z"/><path style="fill:#38353b" d="M375 0h75v75h-75z"/><path style="fill:#842c2a" d="M450 0h75v75h-75z"/><path style="fill:#1e4361" d="M525 0h75v75h-75z"/><path style="fill:#edd9a6" d="M600 0h75v75h-75z"/></g><g class="vertical"><path style="fill:#e2dddb" d="M0 75h75v75H0z"/><path style="fill:#aebac3" d="M0 150h75v75H0z"/><path style="fill:#8f9fab" d="M0 225h75v75H0z"/><path style="fill:#c8d6e6" d="M0 300h75v75H0z"/><path style="fill:#38353b" d="M0 375h75v75H0z"/><path style="fill:#842c2a" d="M0 450h75v75H0z"/><path style="fill:#1e4361" d="M0 525h75v75H0z"/><path style="fill:#edd9a6" d="M0 600h75v75H0z"/></g></g></svg><svg width="75" height="75" x="75" y="75" viewBox="-75 -75 675 675"><path style="fill:#aebac3" d="M0 0h675v675H0z"/><g class="swatches"><g class="horizontal"><path style="fill:#aebac3" d="M75 0h75v75H75z"/><path style="fill:#8f9fab" d="M150 0h75v75h-75z"/><path style="fill:#c8d6e6" d="M225 0h75v75h-75z"/><path style="fill:#38353b" d="M300 0h75v75h-75z"/><path style="fill:#842c2a" d="M375 0h75v75h-75z"/><path style="fill:#1e4361" d="M450 0h75v75h-75z"/><path style="fill:#edd9a6" d="M525 0h75v75h-75z"/><path style="fill:#e2dddb" d="M600 0h75v75h-75z"/></g><g class="vertical"><path style="fill:#aebac3" d="M0 75h75v75H0z"/><path style="fill:#8f9fab" d="M0 150h75v75H0z"/><path style="fill:#c8d6e6" d="M0 225h75v75H0z"/><path style="fill:#38353b" d="M0 300h75v75H0z"/><path style="fill:#842c2a" d="M0 375h75v75H0z"/><path style="fill:#1e4361" d="M0 450h75v75H0z"/><path style="fill:#edd9a6" d="M0 525h75v75H0z"/><path style="fill:#e2dddb" d="M0 600h75v75H0z"/></g></g></svg><svg width="75" height="75" x="150" y="75" viewBox="-75 -75 675 675"><path style="fill:#8f9fab" d="M0 0h675v675H0z"/><g class="swatches"><g class="horizontal"><path style="fill:#8f9fab" d="M75 0h75v75H75z"/><path style="fill:#c8d6e6" d="M150 0h75v75h-75z"/><path style="fill:#38353b" d="M225 0h75v75h-75z"/><path style="fill:#842c2a" d="M300 0h75v75h-75z"/><path style="fill:#1e4361" d="M375 0h75v75h-75z"/><path style="fill:#edd9a6" d="M450 0h75v75h-75z"/><path style="fill:#e2dddb" d="M525 0h75v75h-75z"/><path style="fill:#aebac3" d="M600 0h75v75h-75z"/></g><g class="vertical"><path style="fill:#8f9fab" d="M0 75h75v75H0z"/><path style="fill:#c8d6e6" d="M0 150h75v75H0z"/><path style="fill:#38353b" d="M0 225h75v75H0z"/><path style="fill:#842c2a" d="M0 300h75v75H0z"/><path style="fill:#1e4361" d="M0 375h75v75H0z"/><path style="fill:#edd9a6" d="M0 450h75v75H0z"/><path style="fill:#e2dddb" d="M0 525h75v75H0z"/><path style="fill:#aebac3" d="M0 600h75v75H0z"/></g></g></svg><svg width="75" height="75" x="225" y="75" viewBox="-75 -75 675 675"><path style="fill:#c8d6e6" d="M0 0h675v675H0z"/><g class="swatches"><g class="horizontal"><path style="fill:#c8d6e6" d="M75 0h75v75H75z"/><path style="fill:#38353b" d="M150 0h75v75h-75z"/><path style="fill:#842c2a" d="M225 0h75v75h-75z"/><path style="fill:#1e4361" d="M300 0h75v75h-75z"/><path style="fill:#edd9a6" d="M375 0h75v75h-75z"/><path style="fill:#e2dddb" d="M450 0h75v75h-75z"/><path style="fill:#aebac3" d="M525 0h75v75h-75z"/><path style="fill:#8f9fab" d="M600 0h75v75h-75z"/></g><g class="vertical"><path style="fill:#c8d6e6" d="M0 75h75v75H0z"/><path style="fill:#38353b" d="M0 150h75v75H0z"/><path style="fill:#842c2a" d="M0 225h75v75H0z"/><path style="fill:#1e4361" d="M0 300h75v75H0z"/><path style="fill:#edd9a6" d="M0 375h75v75H0z"/><path style="fill:#e2dddb" d="M0 450h75v75H0z"/><path style="fill:#aebac3" d="M0 525h75v75H0z"/><path style="fill:#8f9fab" d="M0 600h75v75H0z"/></g></g></svg></svg>