<?xml version="1.0" encoding="UTF-8"?>
<svg xmlns="http://www.w3.org/2000/svg" viewBox="0 0 600 75" width="100%">
    <defs>
        <style>
            .color--neutral_highlight { fill: #c8d6e6; }
            .color--neutral_midtone { fill: #8f9fab; }
            .color--neutral_average { fill: #aebac3; }
            .color--light { fill: #e2dddb; }
            .color--accent_light { fill: #edd9a6; }
            .color--accent_dark { fill: #1e4361; }
            .color--dark { fill: #38353b; }
            .color--accent_main { fill: #842c2a; }
            text { font-size: 75px; }
        </style>
    </defs>
    <g>
        <g>
            <rect class="color--neutral_highlight" y="0" x="525" width="75" height="75"/>
            <rect class="color--neutral_midtone" y="0" x="450" width="75" height="75"/>
            <rect class="color--neutral_average" y="0" x="375" width="75" height="75"/>
            <rect class="color--light" y="0" x="300" width="75" height="75"/>
            <rect class="color--accent_light" y="0" x="225" width="75" height="75"/>
            <rect class="color--accent_dark" y="0" x="150" width="75" height="75"/>
            <rect class="color--dark" y="0" x="75" width="75" height="75"/>
            <rect class="color--accent_main" y="0" x="0" width="75" height="75"/>
        </g>
        <g>
            <svg height="60" width="25" y="10" x="0" viewBox="0 0 100 600">
                <text class="color--neutral_highlight" x="0" y="600">Abc</text>
                <text class="color--neutral_midtone" x="0" y="525">Abc</text>
                <text class="color--neutral_average" x="0" y="450">Abc</text>
                <text class="color--light" x="0" y="375">Abc</text>
                <text class="color--accent_light" x="0" y="300">Abc</text>
                <text class="color--accent_dark" x="0" y="225">Abc</text>
                <text class="color--dark" x="0" y="150">Abc</text>
                <text class="color--accent_main" x="0" y="75">Abc</text>
            </svg>
            <svg height="60" width="25" y="10" x="75" viewBox="0 0 100 600">
                <text class="color--neutral_highlight" x="0" y="600">Abc</text>
                <text class="color--neutral_midtone" x="0" y="525">Abc</text>
                <text class="color--neutral_average" x="0" y="450">Abc</text>
                <text class="color--light" x="0" y="375">Abc</text>
                <text class="color--accent_light" x="0" y="300">Abc</text>
                <text class="color--accent_dark" x="0" y="225">Abc</text>
                <text class="color--dark" x="0" y="150">Abc</text>
                <text class="color--accent_main" x="0" y="75">Abc</text>
            </svg>
            <svg height="60" width="25" y="10" x="150" viewBox="0 0 100 600">
                <text class="color--neutral_highlight" x="0" y="600">Abc</text>
                <text class="color--neutral_midtone" x="0" y="525">Abc</text>
                <text class="color--neutral_average" x="0" y="450">Abc</text>
                <text class="color--light" x="0" y="375">Abc</text>
                <text class="color--accent_light" x="0" y="300">Abc</text>
                <text class="color--accent_dark" x="0" y="225">Abc</text>
                <text class="color--dark" x="0" y="150">Abc</text>
                <text class="color--accent_main" x="0" y="75">Abc</text>
            </svg>
            <svg height="60" width="25" y="10" x="225" viewBox="0 0 100 600">
                <text class="color--neutral_highlight" x="0" y="600">Abc</text>
                <text class="color--neutral_midtone" x="0" y="525">Abc</text>
                <text class="color--neutral_average" x="0" y="450">Abc</text>
                <text class="color--light" x="0" y="375">Abc</text>
                <text class="color--accent_light" x="0" y="300">Abc</text>
                <text class="color--accent_dark" x="0" y="225">Abc</text>
                <text class="color--dark" x="0" y="150">Abc</text>
                <text class="color--accent_main" x="0" y="75">Abc</text>
            </svg>
            <svg height="60" width="25" y="10" x="300" viewBox="0 0 100 600">
                <text class="color--neutral_highlight" x="0" y="600">Abc</text>
                <text class="color--neutral_midtone" x="0" y="525">Abc</text>
                <text class="color--neutral_average" x="0" y="450">Abc</text>
                <text class="color--light" x="0" y="375">Abc</text>
                <text class="color--accent_light" x="0" y="300">Abc</text>
                <text class="color--accent_dark" x="0" y="225">Abc</text>
                <text class="color--dark" x="0" y="150">Abc</text>
                <text class="color--accent_main" x="0" y="75">Abc</text>
            </svg>
            <svg height="60" width="25" y="10" x="375" viewBox="0 0 100 600">
                <text class="color--neutral_highlight" x="0" y="600">Abc</text>
                <text class="color--neutral_midtone" x="0" y="525">Abc</text>
                <text class="color--neutral_average" x="0" y="450">Abc</text>
                <text class="color--light" x="0" y="375">Abc</text>
                <text class="color--accent_light" x="0" y="300">Abc</text>
                <text class="color--accent_dark" x="0" y="225">Abc</text>
                <text class="color--dark" x="0" y="150">Abc</text>
                <text class="color--accent_main" x="0" y="75">Abc</text>
            </svg>
            <svg height="60" width="25" y="10" x="450" viewBox="0 0 100 600">
                <text class="color--neutral_highlight" x="0" y="600">Abc</text>
                <text class="color--neutral_midtone" x="0" y="525">Abc</text>
                <text class="color--neutral_average" x="0" y="450">Abc</text>
                <text class="color--light" x="0" y="375">Abc</text>
                <text class="color--accent_light" x="0" y="300">Abc</text>
                <text class="color--accent_dark" x="0" y="225">Abc</text>
                <text class="color--dark" x="0" y="150">Abc</text>
                <text class="color--accent_main" x="0" y="75">Abc</text>
            </svg>
            <svg height="60" width="25" y="10" x="525" viewBox="0 0 100 600">
                <text class="color--neutral_highlight" x="0" y="600">Abc</text>
                <text class="color--neutral_midtone" x="0" y="525">Abc</text>
                <text class="color--neutral_average" x="0" y="450">Abc</text>
                <text class="color--light" x="0" y="375">Abc</text>
                <text class="color--accent_light" x="0" y="300">Abc</text>
                <text class="color--accent_dark" x="0" y="225">Abc</text>
                <text class="color--dark" x="0" y="150">Abc</text>
                <text class="color--accent_main" x="0" y="75">Abc</text>
            </svg>
        </g>
        <g>
            <svg width="75" height="10" y="0" x="525" viewBox="0 0 600 75">
                <rect class="color--accent_main" y="0" x="0" width="75" height="75"/>
                <rect class="color--dark" y="0" x="75" width="75" height="75"/>
                <rect class="color--accent_dark" y="0" x="150" width="75" height="75"/>
                <rect class="color--accent_light" y="0" x="225" width="75" height="75"/>
                <rect class="color--light" y="0" x="300" width="75" height="75"/>
                <rect class="color--neutral_average" y="0" x="375" width="75" height="75"/>
                <rect class="color--neutral_midtone" y="0" x="450" width="75" height="75"/>
                <rect class="color--neutral_highlight" y="0" x="525" width="75" height="75"/>
            </svg>
            <svg width="75" height="10" y="0" x="450" viewBox="0 0 600 75">
                <rect class="color--accent_main" y="0" x="0" width="75" height="75"/>
                <rect class="color--dark" y="0" x="75" width="75" height="75"/>
                <rect class="color--accent_dark" y="0" x="150" width="75" height="75"/>
                <rect class="color--accent_light" y="0" x="225" width="75" height="75"/>
                <rect class="color--light" y="0" x="300" width="75" height="75"/>
                <rect class="color--neutral_average" y="0" x="375" width="75" height="75"/>
                <rect class="color--neutral_midtone" y="0" x="450" width="75" height="75"/>
                <rect class="color--neutral_highlight" y="0" x="525" width="75" height="75"/>
            </svg>
            <svg width="75" height="10" y="0" x="375" viewBox="0 0 600 75">
                <rect class="color--accent_main" y="0" x="0" width="75" height="75"/>
                <rect class="color--dark" y="0" x="75" width="75" height="75"/>
                <rect class="color--accent_dark" y="0" x="150" width="75" height="75"/>
                <rect class="color--accent_light" y="0" x="225" width="75" height="75"/>
                <rect class="color--light" y="0" x="300" width="75" height="75"/>
                <rect class="color--neutral_average" y="0" x="375" width="75" height="75"/>
                <rect class="color--neutral_midtone" y="0" x="450" width="75" height="75"/>
                <rect class="color--neutral_highlight" y="0" x="525" width="75" height="75"/>
            </svg>
            <svg width="75" height="10" y="0" x="300" viewBox="0 0 600 75">
                <rect class="color--accent_main" y="0" x="0" width="75" height="75"/>
                <rect class="color--dark" y="0" x="75" width="75" height="75"/>
                <rect class="color--accent_dark" y="0" x="150" width="75" height="75"/>
                <rect class="color--accent_light" y="0" x="225" width="75" height="75"/>
                <rect class="color--light" y="0" x="300" width="75" height="75"/>
                <rect class="color--neutral_average" y="0" x="375" width="75" height="75"/>
                <rect class="color--neutral_midtone" y="0" x="450" width="75" height="75"/>
                <rect class="color--neutral_highlight" y="0" x="525" width="75" height="75"/>
            </svg>
            <svg width="75" height="10" y="0" x="225" viewBox="0 0 600 75">
                <rect class="color--accent_main" y="0" x="0" width="75" height="75"/>
                <rect class="color--dark" y="0" x="75" width="75" height="75"/>
                <rect class="color--accent_dark" y="0" x="150" width="75" height="75"/>
                <rect class="color--accent_light" y="0" x="225" width="75" height="75"/>
                <rect class="color--light" y="0" x="300" width="75" height="75"/>
                <rect class="color--neutral_average" y="0" x="375" width="75" height="75"/>
                <rect class="color--neutral_midtone" y="0" x="450" width="75" height="75"/>
                <rect class="color--neutral_highlight" y="0" x="525" width="75" height="75"/>
            </svg>
            <svg width="75" height="10" y="0" x="150" viewBox="0 0 600 75">
                <rect class="color--accent_main" y="0" x="0" width="75" height="75"/>
                <rect class="color--dark" y="0" x="75" width="75" height="75"/>
                <rect class="color--accent_dark" y="0" x="150" width="75" height="75"/>
                <rect class="color--accent_light" y="0" x="225" width="75" height="75"/>
                <rect class="color--light" y="0" x="300" width="75" height="75"/>
                <rect class="color--neutral_average" y="0" x="375" width="75" height="75"/>
                <rect class="color--neutral_midtone" y="0" x="450" width="75" height="75"/>
                <rect class="color--neutral_highlight" y="0" x="525" width="75" height="75"/>
            </svg>
            <svg width="75" height="10" y="0" x="75" viewBox="0 0 600 75">
                <rect class="color--accent_main" y="0" x="0" width="75" height="75"/>
                <rect class="color--dark" y="0" x="75" width="75" height="75"/>
                <rect class="color--accent_dark" y="0" x="150" width="75" height="75"/>
                <rect class="color--accent_light" y="0" x="225" width="75" height="75"/>
                <rect class="color--light" y="0" x="300" width="75" height="75"/>
                <rect class="color--neutral_average" y="0" x="375" width="75" height="75"/>
                <rect class="color--neutral_midtone" y="0" x="450" width="75" height="75"/>
                <rect class="color--neutral_highlight" y="0" x="525" width="75" height="75"/>
            </svg>
            <svg width="75" height="10" y="0" x="0" viewBox="0 0 600 75">
                <rect class="color--accent_main" y="0" x="0" width="75" height="75"/>
                <rect class="color--dark" y="0" x="75" width="75" height="75"/>
                <rect class="color--accent_dark" y="0" x="150" width="75" height="75"/>
                <rect class="color--accent_light" y="0" x="225" width="75" height="75"/>
                <rect class="color--light" y="0" x="300" width="75" height="75"/>
                <rect class="color--neutral_average" y="0" x="375" width="75" height="75"/>
                <rect class="color--neutral_midtone" y="0" x="450" width="75" height="75"/>
                <rect class="color--neutral_highlight" y="0" x="525" width="75" height="75"/>
            </svg>
        </g>
    </g>
</svg>